<svg xmlns="http://www.w3.org/2000/svg" width="204.892" height="40" viewBox="0 0 204.892 40">
  <g id="Group_2102" data-name="Group 2102" transform="translate(-50 -69.982)">
    <path id="Crypto_Logo" data-name="Crypto Logo" d="M34.25-98.122a13.543,13.543,0,0,0-11.83-6.5A13.3,13.3,0,0,0,8.88-91.558v.41C8.87-83.5,14.81-77.031,22.42-77.031a14,14,0,0,0,11.83-6.994h6.9a20.09,20.09,0,0,1-10.6,11.162,20.117,20.117,0,0,1-15.4.387A20.062,20.062,0,0,1,2.28-91.148,20.071,20.071,0,0,1,22.44-111.13,20.059,20.059,0,0,1,41.15-98.142ZM44.57-93.5l-7,4.936H28.9a7,7,0,0,1-9.06,4,6.992,6.992,0,0,1-4-9.052,7,7,0,0,1,9.06-4,7,7,0,0,1,4,4.116Z" transform="translate(47.72 181.112)" fill="#427cff" fill-rule="evenodd"/>
    <g id="Group_2101" data-name="Group 2101" transform="translate(97.25 78.982)">
      <path id="Path_5216" data-name="Path 5216" d="M67.641-80.926l-5.824-6.8h-7.5v6.8H49.59V-102H64.464a11.633,11.633,0,0,1,4.677.883A7.433,7.433,0,0,1,72.3-98.655,6.174,6.174,0,0,1,73.416-95v.108a6.428,6.428,0,0,1-1.579,4.474,7.843,7.843,0,0,1-4.363,2.355l6.118,7.113Zm.333-16.168a2.578,2.578,0,0,0-1.549-.912,16.473,16.473,0,0,0-2.647-.167h-1.3c-2.559.059-5.285.088-8.158.088v6.563h9.462a18.2,18.2,0,0,0,2.647-.147,2.6,2.6,0,0,0,1.549-.854,3.347,3.347,0,0,0,.647-2.227A3.671,3.671,0,0,0,67.974-97.095Z" transform="translate(-49.59 102.346)" fill="#1a232c"/>
      <path id="Path_5217" data-name="Path 5217" d="M93.071-101.92h5.54l-10.178,12.2v8.83H83.178v-8.83L73-101.92h5.55l7.2,8.751Z" transform="translate(-50.047 102.345)" fill="#1a232c"/>
      <path id="Path_5218" data-name="Path 5218" d="M120.612-101.016a7.315,7.315,0,0,1,3.157,2.463,6.1,6.1,0,0,1,1.128,3.659v.108a6.683,6.683,0,0,1-2.079,5.3q-2.069,1.805-6.079,1.815H105.9v6.868h-4.8V-101.86h14.864a11.632,11.632,0,0,1,4.648.844ZM118-91.588a2.765,2.765,0,0,0,1.657-.883,3.17,3.17,0,0,0,.686-2.256,3.435,3.435,0,0,0-.716-2.364,2.882,2.882,0,0,0-1.657-.981,16.66,16.66,0,0,0-2.608-.167h-9.55v6.74h9.521A16.883,16.883,0,0,0,118-91.608Z" transform="translate(-50.565 102.344)" fill="#1a232c"/>
      <path id="Path_5219" data-name="Path 5219" d="M151.316-101.92v4.1h-9.442v16.953h-4.8V-97.819H127.49v-4.1ZM127.49-97.907v-4.013h23.826Z" transform="translate(-51.065 102.345)" fill="#1a232c"/>
      <path id="Path_5221" data-name="Path 5221" d="M182.716-101.92v4.1h-9.432v16.953h-4.814V-97.819H158.89v-4.1ZM158.89-97.907v-4.013h23.826Z" transform="translate(-51.659 102.345)" fill="#1a232c"/>
      <path id="Path_5222" data-name="Path 5222" d="M203.437-100.957a11.219,11.219,0,0,1,4.648,3.924,10.07,10.07,0,0,1,1.677,5.69,9.9,9.9,0,0,1-1.677,5.631,11.523,11.523,0,0,1-4.638,3.924,15.092,15.092,0,0,1-6.648,1.432,15.22,15.22,0,0,1-6.6-1.432,11.954,11.954,0,0,1-4.775-3.924,9.589,9.589,0,0,1-1.765-5.621,9.657,9.657,0,0,1,1.765-5.661,11.925,11.925,0,0,1,4.755-3.924,15.141,15.141,0,0,1,6.589-1.432A15.21,15.21,0,0,1,203.437-100.957Zm-2.775,15.9a7.178,7.178,0,0,0,2.941-2.433,6.4,6.4,0,0,0,1.137-3.826,6.438,6.438,0,0,0-1.079-3.826,7.433,7.433,0,0,0-3-2.462,9.379,9.379,0,0,0-3.922-.854,9.448,9.448,0,0,0-4.049.854,7.07,7.07,0,0,0-2.941,2.443,6.635,6.635,0,0,0-1.079,3.787,6.507,6.507,0,0,0,1.128,3.856,7.119,7.119,0,0,0,2.942,2.443,9.575,9.575,0,0,0,4.01.844,9.536,9.536,0,0,0,3.912-.824Z" transform="translate(-52.12 102.353)" fill="#1a232c"/>
      <circle id="Ellipse_3146" data-name="Ellipse 3146" cx="3.5" cy="3.5" r="3.5" transform="translate(100.251 14.479)" fill="#1a232c"/>
    </g>
  </g>
</svg>
